<?xml version="1.0" standalone="no"?>
<!DOCTYPE svg PUBLIC "-//W3C//DTD SVG 20010904//EN"
 "http://www.w3.org/TR/2001/REC-SVG-20010904/DTD/svg10.dtd">
<svg version="1.0" xmlns="http://www.w3.org/2000/svg"
 width="225.000000pt" height="225.000000pt" viewBox="0 0 225.000000 225.000000"
 preserveAspectRatio="xMidYMid meet">
<metadata>
Created by potrace 1.16, written by Peter Selinger 2001-2019
</metadata>
<g transform="translate(0.000000,225.000000) scale(0.100000,-0.100000)"
fill="#000000" stroke="none">
<path d="M975 2239 c-169 -21 -382 -107 -516 -208 -144 -109 -261 -249 -339
-406 -276 -557 -50 -1230 505 -1505 557 -276 1230 -50 1505 505 276 557 50
1230 -505 1505 -204 101 -422 137 -650 109z m405 -108 c100 -26 241 -91 331
-151 82 -56 213 -187 269 -269 59 -89 124 -230 151 -331 20 -73 23 -109 23
-255 0 -198 -16 -278 -88 -431 -59 -125 -115 -205 -210 -300 -95 -95 -175
-151 -300 -210 -153 -72 -233 -88 -431 -88 -198 0 -278 16 -431 88 -125 59
-205 115 -300 210 -95 95 -151 175 -210 300 -72 153 -88 233 -88 431 0 146 3
182 23 255 27 101 92 242 151 331 56 82 187 213 269 269 122 82 296 151 436
173 17 3 95 4 175 3 111 -2 165 -8 230 -25z"/>
<path d="M720 1984 c-7 -17 -9 -315 -8 -838 3 -785 4 -812 23 -843 54 -90 190
-80 229 17 14 35 16 96 16 429 0 367 1 389 19 405 10 9 32 45 47 79 28 60 29
67 29 222 -1 171 -12 230 -61 326 -50 99 -198 229 -262 229 -15 0 -26 -8 -32
-26z m159 -160 c45 -52 85 -129 100 -195 14 -58 14 -284 1 -331 -6 -21 -28
-59 -48 -85 l-37 -48 -5 -409 c-5 -398 -6 -409 -25 -422 -18 -12 -24 -11 -43
2 l-22 15 0 770 c0 753 0 769 19 760 10 -6 37 -32 60 -57z"/>
<path d="M1150 1991 c-6 -12 -10 -127 -10 -305 0 -310 -2 -300 59 -326 l31
-12 0 -500 c0 -551 0 -549 62 -588 52 -33 122 -23 165 24 l33 36 0 509 0 510
43 23 42 23 0 304 c0 278 -1 305 -18 315 -12 8 -22 8 -35 0 -15 -10 -17 -33
-20 -203 l-2 -191 -45 0 -45 0 0 173 c0 94 -3 182 -6 195 -8 26 -48 39 -69 22
-12 -10 -15 -46 -15 -201 l0 -189 -45 0 -45 0 0 188 c0 133 -4 192 -12 200
-18 18 -56 14 -68 -7z m350 -510 c0 -36 -4 -42 -42 -63 l-43 -23 -5 -524 c-5
-502 -6 -523 -24 -537 -17 -12 -23 -12 -40 0 -21 13 -21 22 -26 537 -3 288 -6
525 -8 526 -1 2 -20 12 -42 23 -37 19 -40 24 -40 60 l0 40 135 0 135 0 0 -39z"/>
<path d="M1864 1476 c-20 -15 -17 -40 22 -146 48 -134 45 -245 -11 -436 -4
-13 0 -27 10 -38 50 -50 92 21 117 198 16 121 -7 261 -64 382 -21 45 -47 59
-74 40z"/>
</g>
</svg>
