<?xml version="1.0" standalone="no"?>
<!DOCTYPE svg PUBLIC "-//W3C//DTD SVG 20010904//EN"
 "http://www.w3.org/TR/2001/REC-SVG-20010904/DTD/svg10.dtd">
<svg version="1.0" xmlns="http://www.w3.org/2000/svg"
 width="865.000000pt" height="847.000000pt" viewBox="0 0 865.000000 847.000000"
 preserveAspectRatio="xMidYMid meet">
<metadata>
Created by potrace 1.16, written by Peter Selinger 2001-2019
</metadata>
<g transform="translate(0.000000,847.000000) scale(0.100000,-0.100000)"
fill="#000000" stroke="none">
<path d="M4108 7890 c-541 -29 -1103 -195 -1583 -468 -120 -68 -357 -230 -475
-325 -388 -312 -729 -737 -961 -1199 -364 -727 -469 -1574 -295 -2380 230
-1061 946 -1977 1921 -2458 373 -184 737 -294 1140 -345 513 -64 1035 -20
1530 130 334 101 701 282 1003 492 309 215 647 548 864 849 304 424 528 956
613 1456 l17 98 -47 46 c-65 66 -94 128 -106 232 -18 153 7 234 91 301 29 23
63 44 77 48 l26 6 -6 132 c-31 635 -248 1274 -615 1810 -145 212 -358 459
-373 433 -4 -8 -15 -45 -23 -83 -9 -39 -29 -108 -44 -155 -22 -71 -35 -94 -78
-137 -48 -51 -52 -53 -102 -53 -70 0 -140 36 -210 108 -88 90 -116 177 -88
271 28 96 154 296 211 334 l34 23 -97 78 c-289 231 -654 430 -1014 554 -468
162 -925 227 -1410 202z m-752 -1481 c31 -35 25 -129 -14 -211 -18 -36 -32
-69 -32 -72 0 -4 100 -5 222 -4 l222 3 17 48 c42 115 128 225 196 248 95 31
121 -99 48 -236 -14 -27 -25 -52 -25 -56 0 -5 103 -9 228 -9 l229 0 13 43 c33
110 112 215 188 249 39 18 45 18 67 4 15 -10 25 -29 29 -53 8 -44 -15 -142
-44 -189 -11 -17 -20 -36 -20 -43 0 -8 65 -11 228 -11 l229 0 13 43 c32 108
112 215 183 247 49 22 73 16 94 -24 14 -27 14 -39 4 -90 -7 -33 -23 -81 -37
-108 -13 -26 -24 -52 -24 -58 0 -6 41 -10 109 -10 116 0 139 -9 126 -50 -6
-18 -14 -20 -110 -20 -57 0 -110 -3 -118 -6 -13 -5 -10 -18 18 -76 44 -91 53
-149 31 -194 -13 -28 -21 -34 -46 -34 -84 0 -179 106 -230 255 l-17 50 -149 3
c-82 2 -185 0 -230 -3 l-81 -7 35 -70 c28 -57 35 -83 36 -133 1 -76 -12 -95
-66 -95 -33 0 -47 7 -94 51 -59 57 -94 113 -121 195 l-18 54 -227 0 c-126 0
-228 -2 -228 -4 0 -2 14 -33 31 -69 38 -82 49 -166 25 -202 -33 -51 -109 -27
-187 59 -32 36 -83 136 -94 184 l-7 32 -224 0 c-123 0 -224 -3 -224 -6 0 -3
14 -36 31 -71 35 -74 45 -176 20 -206 -21 -26 -79 -21 -123 10 -65 44 -158
194 -158 253 0 17 -7 20 -39 20 -44 0 -64 18 -59 52 2 19 11 24 46 28 43 5 44
6 63 64 34 101 105 194 174 230 41 22 68 20 91 -5z m707 -1018 c5 0 7 -11 5
-23 -2 -17 -12 -24 -33 -28 l-30 -5 -3 -244 c-2 -189 1 -246 10 -253 15 -9
112 -9 148 1 30 8 60 62 60 108 0 23 5 33 21 38 12 4 25 3 31 -3 9 -9 13 -190
4 -199 -4 -4 -383 -7 -447 -4 -22 2 -4 45 21 51 l25 6 0 249 0 250 -30 5 c-35
6 -49 46 -18 52 16 3 217 3 236 -1z m528 -168 c49 -29 59 -69 59 -228 0 -79 4
-146 8 -149 4 -2 14 -1 22 4 9 6 18 3 27 -8 21 -29 15 -42 -32 -63 -48 -21
-86 -18 -118 9 -14 13 -22 14 -36 5 -64 -40 -143 -34 -193 14 -22 21 -28 36
-28 71 0 61 25 91 107 131 120 58 118 55 121 101 4 54 -18 80 -67 80 -27 0
-32 -3 -23 -12 21 -21 15 -75 -10 -92 -81 -57 -150 46 -77 115 17 15 47 31 67
35 20 3 42 7 47 9 19 8 100 -7 126 -22z m-1351 -1031 c0 -313 2 -326 45 -334
24 -4 33 -37 13 -49 -17 -11 -209 -11 -226 0 -20 12 -11 45 13 49 44 9 45 13
45 274 0 143 -4 257 -10 268 -5 10 -21 21 -35 24 -20 5 -26 12 -23 29 3 22 27
28 151 35 l27 2 0 -298z m1491 181 c1 -65 4 -206 8 -313 l6 -194 25 -6 c18 -4
25 -12 25 -30 l0 -25 -120 0 -120 0 0 25 c0 17 7 26 25 30 l25 6 3 254 c1 140
0 265 -3 277 -3 13 -14 23 -28 25 -15 2 -23 11 -25 30 -4 29 -14 27 146 36
l32 2 1 -117z m-1819 48 c55 -9 109 -43 134 -85 27 -47 25 -150 -5 -199 -33
-54 -99 -89 -180 -96 l-66 -6 -3 -73 c-3 -83 5 -99 51 -104 24 -2 33 -8 35
-25 4 -30 -18 -34 -153 -31 -107 3 -110 4 -113 26 -3 17 2 25 17 29 43 11 51
52 51 264 0 121 -4 200 -10 204 -5 3 -10 15 -10 26 0 12 -7 19 -20 19 -23 0
-35 22 -26 45 4 12 28 15 128 14 68 0 144 -4 170 -8z m2468 -81 l5 -65 58 -3
c56 -3 57 -4 57 -32 0 -28 -1 -29 -57 -32 l-58 -3 0 -162 c0 -117 4 -166 13
-175 15 -15 33 0 61 53 10 19 23 35 30 35 6 1 16 2 21 3 6 0 10 7 10 14 1 21
78 69 163 101 l47 18 0 52 c0 61 -12 76 -57 76 -30 0 -33 -2 -23 -19 38 -72
-55 -138 -110 -79 -28 30 -25 62 10 101 73 84 254 73 292 -17 9 -21 13 -80 13
-181 l0 -150 27 3 c18 2 30 -4 37 -16 15 -28 -15 -51 -75 -58 -39 -5 -54 -2
-73 13 -23 19 -24 19 -63 0 -22 -11 -56 -20 -77 -20 -44 0 -102 28 -108 53 -4
15 -10 12 -37 -18 -28 -30 -40 -36 -87 -40 -45 -3 -59 0 -82 18 -54 43 -60 68
-56 239 l4 156 -37 3 c-37 3 -52 20 -42 46 3 8 22 16 42 18 l37 3 3 56 c3 55
3 56 40 66 62 18 66 15 72 -57z m-923 -95 c104 -68 124 -281 36 -386 -88 -104
-289 -84 -333 33 -6 18 -17 43 -22 54 -6 12 -8 57 -6 100 4 92 34 163 83 197
53 39 184 39 242 2z m652 6 c40 -28 60 -63 73 -124 9 -49 9 -60 -3 -68 -8 -5
-69 -9 -136 -9 -68 0 -123 -3 -123 -7 0 -4 4 -20 10 -37 5 -17 12 -42 14 -56
9 -44 42 -70 88 -70 35 0 47 6 77 39 31 33 39 37 59 28 25 -11 28 -27 10 -60
-46 -81 -128 -112 -237 -91 -40 8 -102 66 -125 118 -25 54 -19 206 9 255 26
45 85 92 127 100 50 11 130 1 157 -18z m-1489 -10 l35 -29 5 -168 5 -169 24 3
c13 1 30 -3 38 -9 7 -7 15 -10 16 -8 22 32 57 90 57 94 0 2 29 54 65 115 88
147 86 140 33 140 -58 0 -78 -16 -93 -76 -9 -38 -17 -50 -34 -52 -26 -4 -28 2
-34 106 l-5 82 184 0 c101 0 184 -4 184 -9 0 -4 -23 -48 -51 -97 -29 -49 -63
-109 -77 -134 -13 -25 -40 -71 -58 -103 -19 -32 -34 -60 -34 -63 0 -2 19 -4
43 -4 53 0 83 27 95 85 6 34 12 41 35 43 l27 3 0 -95 0 -94 -177 -4 c-98 -2
-184 0 -190 5 -7 5 -24 5 -40 0 -32 -11 -85 0 -102 21 -9 11 -18 10 -52 -7
-83 -41 -171 -15 -196 57 -26 76 22 140 135 182 83 31 92 41 92 93 0 56 -12
71 -60 71 l-35 0 3 -44 c3 -39 1 -47 -22 -61 -34 -23 -72 -13 -90 24 -13 25
-13 32 2 61 25 50 72 70 162 70 69 0 79 -3 110 -29z m740 -1002 c0 -16 -7 -46
-15 -66 -19 -46 -19 -50 5 -56 17 -4 20 -10 13 -34 -9 -30 -10 -107 -2 -163
l4 -35 -45 3 c-73 4 -93 3 -136 -4 -25 -3 -51 -1 -64 6 -17 9 -29 9 -51 0 -16
-7 -29 -16 -29 -20 0 -22 24 -72 39 -79 9 -5 95 -9 191 -10 133 -1 178 -5 189
-15 30 -31 2 -36 -202 -36 -111 0 -207 4 -213 8 -5 4 -27 51 -47 105 -37 96
-37 99 -21 132 21 45 82 100 142 128 26 12 49 23 51 24 2 1 -6 15 -18 31 -26
37 -27 62 -2 62 21 0 71 -46 71 -66 0 -28 26 -13 39 21 14 39 78 108 92 99 5
-3 9 -19 9 -35z m430 10 c55 -25 105 -71 133 -124 17 -32 22 -57 22 -125 0
-75 -3 -91 -27 -132 -110 -185 -380 -182 -481 7 -31 57 -31 193 0 250 49 92
137 145 243 145 44 0 80 -7 110 -21z m907 -207 c-29 -57 -63 -74 -101 -48 -29
18 -56 74 -56 115 0 26 0 26 82 26 l83 0 5 45 c4 40 5 38 8 -23 2 -55 -1 -76
-21 -115z m-2553 -693 c14 -11 26 -29 26 -40 0 -23 -13 -24 -34 -4 -53 54
-140 32 -165 -41 -37 -105 65 -193 154 -134 17 11 36 20 43 20 24 0 8 -34 -27
-57 -70 -48 -165 -19 -201 60 -34 74 -20 140 39 190 42 35 124 38 165 6z
m1137 -18 c29 -28 39 -48 41 -72 6 -139 -40 -189 -174 -189 l-78 0 0 150 0
150 86 0 86 0 39 -39z m1469 -93 c0 -62 3 -123 6 -135 7 -26 -23 -45 -36 -23
-6 9 -13 9 -28 1 -31 -16 -94 -13 -118 7 -48 38 -58 105 -24 159 26 43 65 52
140 32 11 -3 16 6 18 34 3 29 7 37 23 37 18 0 19 -8 19 -112z m-2265 27 c21
-21 25 -33 25 -89 0 -35 3 -71 6 -80 8 -20 -25 -34 -36 -16 -7 11 -14 11 -38
1 -96 -40 -172 49 -102 119 15 15 34 20 71 20 46 0 50 2 38 16 -10 12 -25 15
-61 12 -50 -5 -61 5 -30 28 30 23 99 17 127 -11z m207 8 c29 -26 22 -32 -39
-30 -47 2 -58 -1 -61 -15 -2 -13 9 -21 49 -32 63 -19 79 -31 79 -62 0 -57 -83
-84 -150 -49 -52 27 -35 51 22 33 42 -13 88 -4 88 17 0 9 -20 20 -51 29 -63
19 -79 32 -79 62 0 55 98 87 142 47z m200 0 c29 -26 22 -32 -39 -30 -47 2 -58
-1 -61 -15 -2 -13 9 -21 49 -32 63 -19 79 -31 79 -62 0 -57 -83 -84 -150 -49
-52 27 -35 51 22 33 42 -13 88 -4 88 17 0 9 -20 20 -51 29 -63 19 -79 32 -79
62 0 55 98 87 142 47z m705 2 c23 -16 30 -41 36 -138 3 -45 0 -60 -11 -64 -8
-3 -18 0 -22 7 -7 11 -14 11 -38 1 -96 -40 -172 49 -102 119 15 15 34 20 71
20 46 0 50 2 38 16 -10 12 -25 15 -61 12 -50 -5 -61 5 -30 28 23 18 93 17 119
-1z m115 4 c14 -8 23 -8 31 0 16 16 64 13 92 -5 23 -15 27 -15 50 0 25 17 72
21 91 8 24 -16 34 -54 34 -131 0 -74 -2 -81 -20 -81 -18 0 -20 7 -20 71 0 81
-11 109 -44 109 -39 0 -60 -35 -66 -109 -4 -50 -9 -66 -20 -66 -12 0 -16 16
-18 75 -3 80 -12 100 -47 100 -39 0 -59 -35 -63 -111 -4 -58 -7 -69 -21 -67
-13 3 -17 20 -19 97 -4 123 0 132 40 110z m520 -18 c29 -26 33 -35 33 -81 0
-46 -4 -55 -33 -81 -25 -23 -42 -29 -77 -29 -35 0 -52 6 -77 29 -29 26 -33 35
-33 81 0 46 4 55 33 81 25 23 42 29 77 29 35 0 52 -6 77 -29z m108 17 c15 -10
22 -10 32 0 20 20 82 15 104 -9 27 -30 35 -186 9 -195 -25 -10 -35 13 -35 87
0 37 -5 70 -12 77 -19 19 -47 14 -73 -13 -22 -21 -25 -33 -25 -90 0 -58 -2
-66 -17 -63 -15 3 -18 17 -21 97 -4 122 0 132 38 109z"/>
<path d="M2796 4354 c-10 -26 -7 -252 3 -259 17 -10 99 16 118 37 21 24 30
139 14 181 -18 46 -121 77 -135 41z"/>
<path d="M4291 4196 c-28 -30 -41 -82 -40 -166 1 -83 17 -138 50 -162 38 -29
73 -16 99 36 23 49 28 189 8 247 -23 68 -76 88 -117 45z"/>
<path d="M4533 2989 c-7 -7 -13 -23 -13 -35 0 -12 -7 -24 -15 -28 -22 -8 -18
-31 11 -66 84 -99 258 -96 328 6 20 30 22 39 12 69 -10 32 -36 50 -36 25 0 -6
-12 -15 -26 -21 -26 -9 -26 -10 -8 -24 16 -11 17 -16 6 -27 -11 -11 -16 -10
-26 4 -11 15 -18 16 -45 7 -39 -14 -84 -6 -118 21 -14 11 -32 20 -39 20 -7 0
-14 14 -16 31 -2 24 -5 28 -15 18z"/>
<path d="M4114 2327 c-2 -7 -3 -58 -2 -113 l3 -99 59 0 c51 1 61 4 82 28 18
21 24 40 24 75 0 54 -18 85 -60 107 -36 19 -99 20 -106 2z"/>
<path d="M5595 2225 c-14 -13 -25 -33 -25 -45 0 -29 44 -70 75 -70 58 0 87 79
43 120 -29 27 -64 25 -93 -5z"/>
<path d="M5104 2224 c-30 -29 -27 -67 8 -96 45 -39 111 -7 111 52 0 65 -72 92
-119 44z"/>
</g>
</svg>
